<svg xmlns="http://www.w3.org/2000/svg" xmlns:xlink="http://www.w3.org/1999/xlink" contentStyleType="text/css" data-diagram-type="CLASS" height="577px" preserveAspectRatio="none" style="width:1841px;height:577px;background:#1B1B1B;" version="1.1" viewBox="0 0 1841 577" width="1841px" zoomAndPan="magnify"><title>PH Road Safety IG - UML Class Diagram</title><defs/><g><rect fill="#1B1B1B" height="577" style="stroke:none;stroke-width:1;" width="1841" x="0" y="0"/><g class="title" data-source-line="1"><text fill="#FFFFFF" font-family="sans-serif" font-size="14" font-weight="bold" lengthAdjust="spacing" textLength="311.6436" x="758.1048" y="22.9951">PH Road Safety IG - UML Class Diagram</text></g><!--class RS_Patient--><g class="entity" data-entity="RS_Patient" data-source-line="3" data-uid="ent0002" id="entity_RS_Patient"><rect fill="#313139" height="113.1875" rx="2.5" ry="2.5" style="stroke:#E7E7E7;stroke-width:0.5;" width="185.9541" x="597.34" y="234.4869"/><ellipse cx="648.5719" cy="250.4869" fill="#2E5233" rx="11" ry="11" style="stroke:#E7E7E7;stroke-width:1;"/><path d="M651.5407,256.1275 Q650.9626,256.4244 650.3219,256.565 Q649.6813,256.7212 648.9782,256.7212 Q646.4782,256.7212 645.1501,255.0806 Q643.8376,253.4244 643.8376,250.2994 Q643.8376,247.1744 645.1501,245.5181 Q646.4782,243.8619 648.9782,243.8619 Q649.6813,243.8619 650.3219,244.0181 Q650.9782,244.1744 651.5407,244.4712 L651.5407,247.19 Q650.9157,246.6119 650.3219,246.3462 Q649.7282,246.065 649.1032,246.065 Q647.7594,246.065 647.0719,247.1431 Q646.3844,248.2056 646.3844,250.2994 Q646.3844,252.3931 647.0719,253.4712 Q647.7594,254.5337 649.1032,254.5337 Q649.7282,254.5337 650.3219,254.2681 Q650.9157,253.9869 651.5407,253.4087 L651.5407,256.1275 Z " fill="#FFFFFF"/><text fill="#FFFFFF" font-family="sans-serif" font-size="14" lengthAdjust="spacing" textLength="74.9902" x="669.0719" y="255.3336">RS_Patient</text><line style="stroke:#E7E7E7;stroke-width:0.5;" x1="598.34" x2="782.2941" y1="266.4869" y2="266.4869"/><ellipse cx="608.34" cy="280.1353" fill="#000000" rx="3" ry="3" style="stroke:#000000;stroke-width:1;"/><text fill="#FFFFFF" font-family="sans-serif" font-size="14" lengthAdjust="spacing" textLength="62.8291" x="617.34" y="283.482">identifier</text><ellipse cx="608.34" cy="296.4322" fill="#000000" rx="3" ry="3" style="stroke:#000000;stroke-width:1;"/><text fill="#FFFFFF" font-family="sans-serif" font-size="14" lengthAdjust="spacing" textLength="66.3564" x="617.34" y="299.7789">birthDate</text><ellipse cx="608.34" cy="312.7291" fill="#000000" rx="3" ry="3" style="stroke:#000000;stroke-width:1;"/><text fill="#FFFFFF" font-family="sans-serif" font-size="14" lengthAdjust="spacing" textLength="55.3096" x="617.34" y="316.0757">address</text><ellipse cx="608.34" cy="329.0259" fill="#000000" rx="3" ry="3" style="stroke:#000000;stroke-width:1;"/><text fill="#FFFFFF" font-family="sans-serif" font-size="14" lengthAdjust="spacing" textLength="159.9541" x="617.34" y="332.3726">managingOrganization</text><line style="stroke:#E7E7E7;stroke-width:0.5;" x1="598.34" x2="782.2941" y1="339.6744" y2="339.6744"/></g><!--class InjuryObservation--><g class="entity" data-entity="InjuryObservation" data-source-line="10" data-uid="ent0003" id="entity_InjuryObservation"><rect fill="#313139" height="145.7813" rx="2.5" ry="2.5" style="stroke:#E7E7E7;stroke-width:0.5;" width="275.1631" x="997.73" y="424.6769"/><ellipse cx="1068.5332" cy="440.6769" fill="#2E5233" rx="11" ry="11" style="stroke:#E7E7E7;stroke-width:1;"/><path d="M1071.502,446.3175 Q1070.9238,446.6144 1070.2832,446.755 Q1069.6426,446.9113 1068.9395,446.9113 Q1066.4395,446.9113 1065.1113,445.2706 Q1063.7988,443.6144 1063.7988,440.4894 Q1063.7988,437.3644 1065.1113,435.7081 Q1066.4395,434.0519 1068.9395,434.0519 Q1069.6426,434.0519 1070.2832,434.2081 Q1070.9395,434.3644 1071.502,434.6613 L1071.502,437.38 Q1070.877,436.8019 1070.2832,436.5363 Q1069.6895,436.255 1069.0645,436.255 Q1067.7207,436.255 1067.0332,437.3331 Q1066.3457,438.3956 1066.3457,440.4894 Q1066.3457,442.5831 1067.0332,443.6613 Q1067.7207,444.7238 1069.0645,444.7238 Q1069.6895,444.7238 1070.2832,444.4581 Q1070.877,444.1769 1071.502,443.5988 L1071.502,446.3175 Z " fill="#FFFFFF"/><text fill="#FFFFFF" font-family="sans-serif" font-size="14" lengthAdjust="spacing" textLength="125.0566" x="1089.0332" y="445.5236">InjuryObservation</text><line style="stroke:#E7E7E7;stroke-width:0.5;" x1="998.73" x2="1271.8931" y1="456.6769" y2="456.6769"/><ellipse cx="1008.73" cy="470.3253" fill="#000000" rx="3" ry="3" style="stroke:#000000;stroke-width:1;"/><text fill="#FFFFFF" font-family="sans-serif" font-size="14" lengthAdjust="spacing" textLength="43.0186" x="1017.73" y="473.672">status</text><ellipse cx="1008.73" cy="486.6222" fill="#000000" rx="3" ry="3" style="stroke:#000000;stroke-width:1;"/><text fill="#FFFFFF" font-family="sans-serif" font-size="14" lengthAdjust="spacing" textLength="61.8721" x="1017.73" y="489.9689">category</text><ellipse cx="1008.73" cy="502.9191" fill="#000000" rx="3" ry="3" style="stroke:#000000;stroke-width:1;"/><text fill="#FFFFFF" font-family="sans-serif" font-size="14" lengthAdjust="spacing" textLength="33.7627" x="1017.73" y="506.2657">code</text><ellipse cx="1008.73" cy="519.2159" fill="#000000" rx="3" ry="3" style="stroke:#000000;stroke-width:1;"/><text fill="#FFFFFF" font-family="sans-serif" font-size="14" lengthAdjust="spacing" textLength="151.416" x="1017.73" y="522.5626">subject -&gt; RS_Patient</text><ellipse cx="1008.73" cy="535.5128" fill="#000000" rx="3" ry="3" style="stroke:#000000;stroke-width:1;"/><text fill="#FFFFFF" font-family="sans-serif" font-size="14" lengthAdjust="spacing" textLength="249.1631" x="1017.73" y="538.8595">encounter -&gt; RoadSafetyEncounter</text><ellipse cx="1008.73" cy="551.8097" fill="#000000" rx="3" ry="3" style="stroke:#000000;stroke-width:1;"/><text fill="#FFFFFF" font-family="sans-serif" font-size="14" lengthAdjust="spacing" textLength="79.2012" x="1017.73" y="555.1564">component</text><line style="stroke:#E7E7E7;stroke-width:0.5;" x1="998.73" x2="1271.8931" y1="562.4581" y2="562.4581"/></g><!--class RoadSafetyEncounter--><g class="entity" data-entity="RoadSafetyEncounter" data-source-line="19" data-uid="ent0004" id="entity_RoadSafetyEncounter"><rect fill="#313139" height="113.1875" rx="2.5" ry="2.5" style="stroke:#E7E7E7;stroke-width:0.5;" width="184.127" x="598.25" y="44.2969"/><ellipse cx="613.25" cy="60.2969" fill="#2E5233" rx="11" ry="11" style="stroke:#E7E7E7;stroke-width:1;"/><path d="M616.2188,65.9375 Q615.6406,66.2344 615,66.375 Q614.3594,66.5313 613.6563,66.5313 Q611.1563,66.5313 609.8281,64.8906 Q608.5156,63.2344 608.5156,60.1094 Q608.5156,56.9844 609.8281,55.3281 Q611.1563,53.6719 613.6563,53.6719 Q614.3594,53.6719 615,53.8281 Q615.6563,53.9844 616.2188,54.2813 L616.2188,57 Q615.5938,56.4219 615,56.1563 Q614.4063,55.875 613.7813,55.875 Q612.4375,55.875 611.75,56.9531 Q611.0625,58.0156 611.0625,60.1094 Q611.0625,62.2031 611.75,63.2813 Q612.4375,64.3438 613.7813,64.3438 Q614.4063,64.3438 615,64.0781 Q615.5938,63.7969 616.2188,63.2188 L616.2188,65.9375 Z " fill="#FFFFFF"/><text fill="#FFFFFF" font-family="sans-serif" font-size="14" lengthAdjust="spacing" textLength="152.127" x="627.25" y="65.1436">RoadSafetyEncounter</text><line style="stroke:#E7E7E7;stroke-width:0.5;" x1="599.25" x2="781.377" y1="76.2969" y2="76.2969"/><ellipse cx="609.25" cy="89.9453" fill="#000000" rx="3" ry="3" style="stroke:#000000;stroke-width:1;"/><text fill="#FFFFFF" font-family="sans-serif" font-size="14" lengthAdjust="spacing" textLength="62.8291" x="618.25" y="93.292">identifier</text><ellipse cx="609.25" cy="106.2422" fill="#000000" rx="3" ry="3" style="stroke:#000000;stroke-width:1;"/><text fill="#FFFFFF" font-family="sans-serif" font-size="14" lengthAdjust="spacing" textLength="43.0186" x="618.25" y="109.5889">status</text><ellipse cx="609.25" cy="122.5391" fill="#000000" rx="3" ry="3" style="stroke:#000000;stroke-width:1;"/><text fill="#FFFFFF" font-family="sans-serif" font-size="14" lengthAdjust="spacing" textLength="151.416" x="618.25" y="125.8857">subject -&gt; RS_Patient</text><ellipse cx="609.25" cy="138.8359" fill="#000000" rx="3" ry="3" style="stroke:#000000;stroke-width:1;"/><text fill="#FFFFFF" font-family="sans-serif" font-size="14" lengthAdjust="spacing" textLength="55.5488" x="618.25" y="142.1826">location</text><line style="stroke:#E7E7E7;stroke-width:0.5;" x1="599.25" x2="781.377" y1="149.4844" y2="149.4844"/></g><!--class RoadSafetyClaim--><g class="entity" data-entity="RoadSafetyClaim" data-source-line="26" data-uid="ent0005" id="entity_RoadSafetyClaim"><rect fill="#313139" height="80.5938" rx="2.5" ry="2.5" style="stroke:#E7E7E7;stroke-width:0.5;" width="275.1631" x="687.73" y="457.2669"/><ellipse cx="760.9053" cy="473.2669" fill="#2E5233" rx="11" ry="11" style="stroke:#E7E7E7;stroke-width:1;"/><path d="M763.874,478.9075 Q763.2959,479.2044 762.6553,479.345 Q762.0147,479.5012 761.3115,479.5012 Q758.8115,479.5012 757.4834,477.8606 Q756.1709,476.2044 756.1709,473.0794 Q756.1709,469.9544 757.4834,468.2981 Q758.8115,466.6419 761.3115,466.6419 Q762.0147,466.6419 762.6553,466.7981 Q763.3115,466.9544 763.874,467.2512 L763.874,469.97 Q763.249,469.3919 762.6553,469.1262 Q762.0615,468.845 761.4365,468.845 Q760.0928,468.845 759.4053,469.9231 Q758.7178,470.9856 758.7178,473.0794 Q758.7178,475.1731 759.4053,476.2512 Q760.0928,477.3137 761.4365,477.3137 Q762.0615,477.3137 762.6553,477.0481 Q763.249,476.7669 763.874,476.1887 L763.874,478.9075 Z " fill="#FFFFFF"/><text fill="#FFFFFF" font-family="sans-serif" font-size="14" lengthAdjust="spacing" textLength="120.3125" x="781.4053" y="478.1136">RoadSafetyClaim</text><line style="stroke:#E7E7E7;stroke-width:0.5;" x1="688.73" x2="961.8931" y1="489.2669" y2="489.2669"/><ellipse cx="698.73" cy="502.9153" fill="#000000" rx="3" ry="3" style="stroke:#000000;stroke-width:1;"/><text fill="#FFFFFF" font-family="sans-serif" font-size="14" lengthAdjust="spacing" textLength="32.0127" x="707.73" y="506.262">total</text><ellipse cx="698.73" cy="519.2122" fill="#000000" rx="3" ry="3" style="stroke:#000000;stroke-width:1;"/><text fill="#FFFFFF" font-family="sans-serif" font-size="14" lengthAdjust="spacing" textLength="249.1631" x="707.73" y="522.5589">encounter -&gt; RoadSafetyEncounter</text><line style="stroke:#E7E7E7;stroke-width:0.5;" x1="688.73" x2="961.8931" y1="529.8606" y2="529.8606"/></g><!--class HospitalAvailable--><g class="entity" data-entity="HospitalAvailable" data-source-line="31" data-uid="ent0006" id="entity_HospitalAvailable"><rect fill="#313139" height="113.1875" rx="2.5" ry="2.5" style="stroke:#E7E7E7;stroke-width:0.5;" width="153.3105" x="1255.66" y="44.2969"/><ellipse cx="1270.66" cy="60.2969" fill="#2E5233" rx="11" ry="11" style="stroke:#E7E7E7;stroke-width:1;"/><path d="M1273.6288,65.9375 Q1273.0506,66.2344 1272.41,66.375 Q1271.7694,66.5313 1271.0663,66.5313 Q1268.5663,66.5313 1267.2381,64.8906 Q1265.9256,63.2344 1265.9256,60.1094 Q1265.9256,56.9844 1267.2381,55.3281 Q1268.5663,53.6719 1271.0663,53.6719 Q1271.7694,53.6719 1272.41,53.8281 Q1273.0663,53.9844 1273.6288,54.2813 L1273.6288,57 Q1273.0038,56.4219 1272.41,56.1563 Q1271.8163,55.875 1271.1913,55.875 Q1269.8475,55.875 1269.16,56.9531 Q1268.4725,58.0156 1268.4725,60.1094 Q1268.4725,62.2031 1269.16,63.2813 Q1269.8475,64.3438 1271.1913,64.3438 Q1271.8163,64.3438 1272.41,64.0781 Q1273.0038,63.7969 1273.6288,63.2188 L1273.6288,65.9375 Z " fill="#FFFFFF"/><text fill="#FFFFFF" font-family="sans-serif" font-size="14" lengthAdjust="spacing" textLength="121.3105" x="1284.66" y="65.1436">HospitalAvailable</text><line style="stroke:#E7E7E7;stroke-width:0.5;" x1="1256.66" x2="1407.9705" y1="76.2969" y2="76.2969"/><ellipse cx="1266.66" cy="89.9453" fill="#000000" rx="3" ry="3" style="stroke:#000000;stroke-width:1;"/><text fill="#FFFFFF" font-family="sans-serif" font-size="14" lengthAdjust="spacing" textLength="39.7031" x="1275.66" y="93.292">name</text><ellipse cx="1266.66" cy="106.2422" fill="#000000" rx="3" ry="3" style="stroke:#000000;stroke-width:1;"/><text fill="#FFFFFF" font-family="sans-serif" font-size="14" lengthAdjust="spacing" textLength="61.8721" x="1275.66" y="109.5889">category</text><ellipse cx="1266.66" cy="122.5391" fill="#000000" rx="3" ry="3" style="stroke:#000000;stroke-width:1;"/><text fill="#FFFFFF" font-family="sans-serif" font-size="14" lengthAdjust="spacing" textLength="55.5488" x="1275.66" y="125.8857">location</text><ellipse cx="1266.66" cy="138.8359" fill="#000000" rx="3" ry="3" style="stroke:#000000;stroke-width:1;"/><text fill="#FFFFFF" font-family="sans-serif" font-size="14" lengthAdjust="spacing" textLength="42.5537" x="1275.66" y="142.1826">active</text><line style="stroke:#E7E7E7;stroke-width:0.5;" x1="1256.66" x2="1407.9705" y1="149.4844" y2="149.4844"/></g><!--class RoadSafetyDocumentReference--><g class="entity" data-entity="RoadSafetyDocumentReference" data-source-line="38" data-uid="ent0007" id="entity_RoadSafetyDocumentReference"><rect fill="#313139" height="113.1875" rx="2.5" ry="2.5" style="stroke:#E7E7E7;stroke-width:0.5;" width="332.626" x="7" y="234.4869"/><ellipse cx="56.8101" cy="250.4869" fill="#2E5233" rx="11" ry="11" style="stroke:#E7E7E7;stroke-width:1;"/><path d="M59.7788,256.1275 Q59.2007,256.4244 58.5601,256.565 Q57.9194,256.7212 57.2163,256.7212 Q54.7163,256.7212 53.3882,255.0806 Q52.0757,253.4244 52.0757,250.2994 Q52.0757,247.1744 53.3882,245.5181 Q54.7163,243.8619 57.2163,243.8619 Q57.9194,243.8619 58.5601,244.0181 Q59.2163,244.1744 59.7788,244.4712 L59.7788,247.19 Q59.1538,246.6119 58.5601,246.3462 Q57.9663,246.065 57.3413,246.065 Q55.9976,246.065 55.3101,247.1431 Q54.6226,248.2056 54.6226,250.2994 Q54.6226,252.3931 55.3101,253.4712 Q55.9976,254.5337 57.3413,254.5337 Q57.9663,254.5337 58.5601,254.2681 Q59.1538,253.9869 59.7788,253.4087 L59.7788,256.1275 Z " fill="#FFFFFF"/><text fill="#FFFFFF" font-family="sans-serif" font-size="14" lengthAdjust="spacing" textLength="224.5059" x="77.3101" y="255.3336">RoadSafetyDocumentReference</text><line style="stroke:#E7E7E7;stroke-width:0.5;" x1="8" x2="338.626" y1="266.4869" y2="266.4869"/><ellipse cx="18" cy="280.1353" fill="#000000" rx="3" ry="3" style="stroke:#000000;stroke-width:1;"/><text fill="#FFFFFF" font-family="sans-serif" font-size="14" lengthAdjust="spacing" textLength="43.0186" x="27" y="283.482">status</text><ellipse cx="18" cy="296.4322" fill="#000000" rx="3" ry="3" style="stroke:#000000;stroke-width:1;"/><text fill="#FFFFFF" font-family="sans-serif" font-size="14" lengthAdjust="spacing" textLength="61.8721" x="27" y="299.7789">category</text><ellipse cx="18" cy="312.7291" fill="#000000" rx="3" ry="3" style="stroke:#000000;stroke-width:1;"/><text fill="#FFFFFF" font-family="sans-serif" font-size="14" lengthAdjust="spacing" textLength="234.999" x="27" y="316.0757">relatesTo -&gt; DocumentReference</text><ellipse cx="18" cy="329.0259" fill="#000000" rx="3" ry="3" style="stroke:#000000;stroke-width:1;"/><text fill="#FFFFFF" font-family="sans-serif" font-size="14" lengthAdjust="spacing" textLength="306.626" x="27" y="332.3726">context.encounter -&gt; RoadSafetyEncounter</text><line style="stroke:#E7E7E7;stroke-width:0.5;" x1="8" x2="338.626" y1="339.6744" y2="339.6744"/></g><!--class RoadSafetyMedicationStatement--><g class="entity" data-entity="RoadSafetyMedicationStatement" data-source-line="45" data-uid="ent0008" id="entity_RoadSafetyMedicationStatement"><rect fill="#313139" height="96.8906" rx="2.5" ry="2.5" style="stroke:#E7E7E7;stroke-width:0.5;" width="262.7744" x="389.93" y="449.1169"/><ellipse cx="404.93" cy="465.1169" fill="#2E5233" rx="11" ry="11" style="stroke:#E7E7E7;stroke-width:1;"/><path d="M407.8988,470.7575 Q407.3206,471.0544 406.68,471.195 Q406.0394,471.3512 405.3363,471.3512 Q402.8363,471.3512 401.5081,469.7106 Q400.1956,468.0544 400.1956,464.9294 Q400.1956,461.8044 401.5081,460.1481 Q402.8363,458.4919 405.3363,458.4919 Q406.0394,458.4919 406.68,458.6481 Q407.3363,458.8044 407.8988,459.1012 L407.8988,461.82 Q407.2738,461.2419 406.68,460.9762 Q406.0863,460.695 405.4613,460.695 Q404.1175,460.695 403.43,461.7731 Q402.7425,462.8356 402.7425,464.9294 Q402.7425,467.0231 403.43,468.1012 Q404.1175,469.1637 405.4613,469.1637 Q406.0863,469.1637 406.68,468.8981 Q407.2738,468.6169 407.8988,468.0387 L407.8988,470.7575 Z " fill="#FFFFFF"/><text fill="#FFFFFF" font-family="sans-serif" font-size="14" lengthAdjust="spacing" textLength="230.7744" x="418.93" y="469.9636">RoadSafetyMedicationStatement</text><line style="stroke:#E7E7E7;stroke-width:0.5;" x1="390.93" x2="651.7044" y1="481.1169" y2="481.1169"/><ellipse cx="400.93" cy="494.7653" fill="#000000" rx="3" ry="3" style="stroke:#000000;stroke-width:1;"/><text fill="#FFFFFF" font-family="sans-serif" font-size="14" lengthAdjust="spacing" textLength="43.0186" x="409.93" y="498.112">status</text><ellipse cx="400.93" cy="511.0622" fill="#000000" rx="3" ry="3" style="stroke:#000000;stroke-width:1;"/><text fill="#FFFFFF" font-family="sans-serif" font-size="14" lengthAdjust="spacing" textLength="201.8311" x="409.93" y="514.4089">medicationCodeableConcept</text><ellipse cx="400.93" cy="527.3591" fill="#000000" rx="3" ry="3" style="stroke:#000000;stroke-width:1;"/><text fill="#FFFFFF" font-family="sans-serif" font-size="14" lengthAdjust="spacing" textLength="151.416" x="409.93" y="530.7057">subject -&gt; RS_Patient</text><line style="stroke:#E7E7E7;stroke-width:0.5;" x1="390.93" x2="651.7044" y1="538.0075" y2="538.0075"/></g><!--class RoadSafetyProcedure--><g class="entity" data-entity="RoadSafetyProcedure" data-source-line="51" data-uid="ent0009" id="entity_RoadSafetyProcedure"><rect fill="#313139" height="113.1875" rx="2.5" ry="2.5" style="stroke:#E7E7E7;stroke-width:0.5;" width="254.915" x="99.86" y="440.9769"/><ellipse cx="147.1954" cy="456.9769" fill="#2E5233" rx="11" ry="11" style="stroke:#E7E7E7;stroke-width:1;"/><path d="M150.1642,462.6175 Q149.5861,462.9144 148.9454,463.055 Q148.3048,463.2112 147.6017,463.2112 Q145.1017,463.2112 143.7736,461.5706 Q142.4611,459.9144 142.4611,456.7894 Q142.4611,453.6644 143.7736,452.0081 Q145.1017,450.3519 147.6017,450.3519 Q148.3048,450.3519 148.9454,450.5081 Q149.6017,450.6644 150.1642,450.9612 L150.1642,453.68 Q149.5392,453.1019 148.9454,452.8362 Q148.3517,452.555 147.7267,452.555 Q146.3829,452.555 145.6954,453.6331 Q145.0079,454.6956 145.0079,456.7894 Q145.0079,458.8831 145.6954,459.9612 Q146.3829,461.0237 147.7267,461.0237 Q148.3517,461.0237 148.9454,460.7581 Q149.5392,460.4769 150.1642,459.8987 L150.1642,462.6175 Z " fill="#FFFFFF"/><text fill="#FFFFFF" font-family="sans-serif" font-size="14" lengthAdjust="spacing" textLength="151.7441" x="167.6954" y="461.8236">RoadSafetyProcedure</text><line style="stroke:#E7E7E7;stroke-width:0.5;" x1="100.86" x2="353.775" y1="472.9769" y2="472.9769"/><ellipse cx="110.86" cy="486.6253" fill="#000000" rx="3" ry="3" style="stroke:#000000;stroke-width:1;"/><text fill="#FFFFFF" font-family="sans-serif" font-size="14" lengthAdjust="spacing" textLength="43.0186" x="119.86" y="489.972">status</text><ellipse cx="110.86" cy="502.9222" fill="#000000" rx="3" ry="3" style="stroke:#000000;stroke-width:1;"/><text fill="#FFFFFF" font-family="sans-serif" font-size="14" lengthAdjust="spacing" textLength="33.7627" x="119.86" y="506.2689">code</text><ellipse cx="110.86" cy="519.2191" fill="#000000" rx="3" ry="3" style="stroke:#000000;stroke-width:1;"/><text fill="#FFFFFF" font-family="sans-serif" font-size="14" lengthAdjust="spacing" textLength="151.416" x="119.86" y="522.5657">subject -&gt; RS_Patient</text><ellipse cx="110.86" cy="535.5159" fill="#000000" rx="3" ry="3" style="stroke:#000000;stroke-width:1;"/><text fill="#FFFFFF" font-family="sans-serif" font-size="14" lengthAdjust="spacing" textLength="228.915" x="119.86" y="538.8626">performer -&gt; PHCorePractitioner</text><line style="stroke:#E7E7E7;stroke-width:0.5;" x1="100.86" x2="353.775" y1="546.1644" y2="546.1644"/></g><!--class RoadSafetyQuestionnaire--><g class="entity" data-entity="RoadSafetyQuestionnaire" data-source-line="58" data-uid="ent0010" id="entity_RoadSafetyQuestionnaire"><rect fill="#313139" height="113.1875" rx="2.5" ry="2.5" style="stroke:#E7E7E7;stroke-width:0.5;" width="210.8691" x="1443.88" y="44.2969"/><ellipse cx="1458.88" cy="60.2969" fill="#2E5233" rx="11" ry="11" style="stroke:#E7E7E7;stroke-width:1;"/><path d="M1461.8488,65.9375 Q1461.2706,66.2344 1460.63,66.375 Q1459.9894,66.5313 1459.2863,66.5313 Q1456.7863,66.5313 1455.4581,64.8906 Q1454.1456,63.2344 1454.1456,60.1094 Q1454.1456,56.9844 1455.4581,55.3281 Q1456.7863,53.6719 1459.2863,53.6719 Q1459.9894,53.6719 1460.63,53.8281 Q1461.2863,53.9844 1461.8488,54.2813 L1461.8488,57 Q1461.2238,56.4219 1460.63,56.1563 Q1460.0363,55.875 1459.4113,55.875 Q1458.0675,55.875 1457.38,56.9531 Q1456.6925,58.0156 1456.6925,60.1094 Q1456.6925,62.2031 1457.38,63.2813 Q1458.0675,64.3438 1459.4113,64.3438 Q1460.0363,64.3438 1460.63,64.0781 Q1461.2238,63.7969 1461.8488,63.2188 L1461.8488,65.9375 Z " fill="#FFFFFF"/><text fill="#FFFFFF" font-family="sans-serif" font-size="14" lengthAdjust="spacing" textLength="178.8691" x="1472.88" y="65.1436">RoadSafetyQuestionnaire</text><line style="stroke:#E7E7E7;stroke-width:0.5;" x1="1444.88" x2="1653.7491" y1="76.2969" y2="76.2969"/><ellipse cx="1454.88" cy="89.9453" fill="#000000" rx="3" ry="3" style="stroke:#000000;stroke-width:1;"/><text fill="#FFFFFF" font-family="sans-serif" font-size="14" lengthAdjust="spacing" textLength="43.0186" x="1463.88" y="93.292">status</text><ellipse cx="1454.88" cy="106.2422" fill="#000000" rx="3" ry="3" style="stroke:#000000;stroke-width:1;"/><text fill="#FFFFFF" font-family="sans-serif" font-size="14" lengthAdjust="spacing" textLength="39.7031" x="1463.88" y="109.5889">name</text><ellipse cx="1454.88" cy="122.5391" fill="#000000" rx="3" ry="3" style="stroke:#000000;stroke-width:1;"/><text fill="#FFFFFF" font-family="sans-serif" font-size="14" lengthAdjust="spacing" textLength="27.3711" x="1463.88" y="125.8857">title</text><ellipse cx="1454.88" cy="138.8359" fill="#000000" rx="3" ry="3" style="stroke:#000000;stroke-width:1;"/><text fill="#FFFFFF" font-family="sans-serif" font-size="14" lengthAdjust="spacing" textLength="31.6299" x="1463.88" y="142.1826">item</text><line style="stroke:#E7E7E7;stroke-width:0.5;" x1="1444.88" x2="1653.7491" y1="149.4844" y2="149.4844"/></g><!--class RoadSafetyServiceRequest--><g class="entity" data-entity="RoadSafetyServiceRequest" data-source-line="65" data-uid="ent0011" id="entity_RoadSafetyServiceRequest"><rect fill="#313139" height="113.1875" rx="2.5" ry="2.5" style="stroke:#E7E7E7;stroke-width:0.5;" width="363.4902" x="1150.57" y="234.4869"/><ellipse cx="1233.1755" cy="250.4869" fill="#2E5233" rx="11" ry="11" style="stroke:#E7E7E7;stroke-width:1;"/><path d="M1236.1442,256.1275 Q1235.5661,256.4244 1234.9255,256.565 Q1234.2848,256.7212 1233.5817,256.7212 Q1231.0817,256.7212 1229.7536,255.0806 Q1228.4411,253.4244 1228.4411,250.2994 Q1228.4411,247.1744 1229.7536,245.5181 Q1231.0817,243.8619 1233.5817,243.8619 Q1234.2848,243.8619 1234.9255,244.0181 Q1235.5817,244.1744 1236.1442,244.4712 L1236.1442,247.19 Q1235.5192,246.6119 1234.9255,246.3462 Q1234.3317,246.065 1233.7067,246.065 Q1232.363,246.065 1231.6755,247.1431 Q1230.988,248.2056 1230.988,250.2994 Q1230.988,252.3931 1231.6755,253.4712 Q1232.363,254.5337 1233.7067,254.5337 Q1234.3317,254.5337 1234.9255,254.2681 Q1235.5192,253.9869 1236.1442,253.4087 L1236.1442,256.1275 Z " fill="#FFFFFF"/><text fill="#FFFFFF" font-family="sans-serif" font-size="14" lengthAdjust="spacing" textLength="189.7793" x="1253.6755" y="255.3336">RoadSafetyServiceRequest</text><line style="stroke:#E7E7E7;stroke-width:0.5;" x1="1151.57" x2="1513.0602" y1="266.4869" y2="266.4869"/><ellipse cx="1161.57" cy="280.1353" fill="#000000" rx="3" ry="3" style="stroke:#000000;stroke-width:1;"/><text fill="#FFFFFF" font-family="sans-serif" font-size="14" lengthAdjust="spacing" textLength="120.4766" x="1170.57" y="283.482">status = revoked</text><ellipse cx="1161.57" cy="296.4322" fill="#000000" rx="3" ry="3" style="stroke:#000000;stroke-width:1;"/><text fill="#FFFFFF" font-family="sans-serif" font-size="14" lengthAdjust="spacing" textLength="249.1631" x="1170.57" y="299.7789">encounter -&gt; RoadSafetyEncounter</text><ellipse cx="1161.57" cy="312.7291" fill="#000000" rx="3" ry="3" style="stroke:#000000;stroke-width:1;"/><text fill="#FFFFFF" font-family="sans-serif" font-size="14" lengthAdjust="spacing" textLength="335.3984" x="1170.57" y="316.0757">supportingInfo[hospital] -&gt; PHCoreOrganization</text><ellipse cx="1161.57" cy="329.0259" fill="#000000" rx="3" ry="3" style="stroke:#000000;stroke-width:1;"/><text fill="#FFFFFF" font-family="sans-serif" font-size="14" lengthAdjust="spacing" textLength="337.4902" x="1170.57" y="332.3726">supportingInfo[physician] -&gt; PHCorePractitioner</text><line style="stroke:#E7E7E7;stroke-width:0.5;" x1="1151.57" x2="1513.0602" y1="339.6744" y2="339.6744"/></g><!--class RoadSafetyTask--><g class="entity" data-entity="RoadSafetyTask" data-source-line="72" data-uid="ent0012" id="entity_RoadSafetyTask"><rect fill="#313139" height="96.8906" rx="2.5" ry="2.5" style="stroke:#E7E7E7;stroke-width:0.5;" width="145.0732" x="1689.78" y="52.4469"/><ellipse cx="1704.78" cy="68.4469" fill="#2E5233" rx="11" ry="11" style="stroke:#E7E7E7;stroke-width:1;"/><path d="M1707.7488,74.0875 Q1707.1706,74.3844 1706.53,74.525 Q1705.8894,74.6812 1705.1863,74.6812 Q1702.6863,74.6812 1701.3581,73.0406 Q1700.0456,71.3844 1700.0456,68.2594 Q1700.0456,65.1344 1701.3581,63.4781 Q1702.6863,61.8219 1705.1863,61.8219 Q1705.8894,61.8219 1706.53,61.9781 Q1707.1863,62.1344 1707.7488,62.4312 L1707.7488,65.15 Q1707.1238,64.5719 1706.53,64.3062 Q1705.9363,64.025 1705.3113,64.025 Q1703.9675,64.025 1703.28,65.1031 Q1702.5925,66.1656 1702.5925,68.2594 Q1702.5925,70.3531 1703.28,71.4312 Q1703.9675,72.4937 1705.3113,72.4937 Q1705.9363,72.4937 1706.53,72.2281 Q1707.1238,71.9469 1707.7488,71.3687 L1707.7488,74.0875 Z " fill="#FFFFFF"/><text fill="#FFFFFF" font-family="sans-serif" font-size="14" lengthAdjust="spacing" textLength="113.0732" x="1718.78" y="73.2936">RoadSafetyTask</text><line style="stroke:#E7E7E7;stroke-width:0.5;" x1="1690.78" x2="1833.8532" y1="84.4469" y2="84.4469"/><ellipse cx="1700.78" cy="98.0953" fill="#000000" rx="3" ry="3" style="stroke:#000000;stroke-width:1;"/><text fill="#FFFFFF" font-family="sans-serif" font-size="14" lengthAdjust="spacing" textLength="43.0186" x="1709.78" y="101.442">status</text><ellipse cx="1700.78" cy="114.3922" fill="#000000" rx="3" ry="3" style="stroke:#000000;stroke-width:1;"/><text fill="#FFFFFF" font-family="sans-serif" font-size="14" lengthAdjust="spacing" textLength="113.0527" x="1709.78" y="117.7389">executionPeriod</text><ellipse cx="1700.78" cy="130.6891" fill="#000000" rx="3" ry="3" style="stroke:#000000;stroke-width:1;"/><text fill="#FFFFFF" font-family="sans-serif" font-size="14" lengthAdjust="spacing" textLength="31.541" x="1709.78" y="134.0357">note</text><line style="stroke:#E7E7E7;stroke-width:0.5;" x1="1690.78" x2="1833.8532" y1="141.3375" y2="141.3375"/></g><!--link RS_Patient to InjuryObservation--><g class="link" data-entity-1="RS_Patient" data-entity-2="InjuryObservation" data-source-line="79" data-uid="lnk13" id="link_RS_Patient_InjuryObservation"><path codeLine="79" d="M783.55,342.9069 C817.32,360.3869 856.07,379.3869 892.31,394.6769 C930.38,410.7369 941.96,409.2969 980.31,424.6769 C985.96,426.9369 986.1604,426.9681 991.9304,429.3981" fill="none" id="RS_Patient-to-InjuryObservation" style="stroke:#E7E7E7;stroke-width:1;"/><polygon fill="#E7E7E7" points="997.46,431.7269,990.7181,424.5473,992.852,429.7862,987.613,431.9201,997.46,431.7269" style="stroke:#E7E7E7;stroke-width:1;"/><text fill="#FFFFFF" font-family="sans-serif" font-size="13" lengthAdjust="spacing" textLength="110.7666" x="893.31" y="390.7438">has observations</text><text fill="#FFFFFF" font-family="sans-serif" font-size="13" lengthAdjust="spacing" textLength="8.271" x="791.309" y="343.5113">1</text><text fill="#FFFFFF" font-family="sans-serif" font-size="13" lengthAdjust="spacing" textLength="23.0356" x="966.76" y="425.0156">0..*</text></g><!--link RS_Patient to RoadSafetyProcedure--><g class="link" data-entity-1="RS_Patient" data-entity-2="RoadSafetyProcedure" data-source-line="80" data-uid="lnk14" id="link_RS_Patient_RoadSafetyProcedure"><path codeLine="80" d="M597.09,329.0869 C533.34,354.8469 447.15,390.5669 372.31,424.6769 C361.32,429.6869 355.3406,432.4536 343.9906,437.8936" fill="none" id="RS_Patient-to-RoadSafetyProcedure" style="stroke:#E7E7E7;stroke-width:1;"/><polygon fill="#E7E7E7" points="338.58,440.4869,348.4248,440.204,343.0889,438.3258,344.9671,432.9899,338.58,440.4869" style="stroke:#E7E7E7;stroke-width:1;"/><text fill="#FFFFFF" font-family="sans-serif" font-size="13" lengthAdjust="spacing" textLength="69.0498" x="478.31" y="390.7438">undergoes</text><text fill="#FFFFFF" font-family="sans-serif" font-size="13" lengthAdjust="spacing" textLength="8.271" x="581.0496" y="328.6856">1</text><text fill="#FFFFFF" font-family="sans-serif" font-size="13" lengthAdjust="spacing" textLength="23.0356" x="327.1171" y="430.094">0..*</text></g><!--link RS_Patient to RoadSafetyMedicationStatement--><g class="link" data-entity-1="RS_Patient" data-entity-2="RoadSafetyMedicationStatement" data-source-line="81" data-uid="lnk15" id="link_RS_Patient_RoadSafetyMedicationStatement"><path codeLine="81" d="M644.13,347.9569 C618.04,379.5269 589.5825,413.9621 564.6625,444.1121" fill="none" id="RS_Patient-to-RoadSafetyMedicationStatement" style="stroke:#E7E7E7;stroke-width:1;"/><polygon fill="#E7E7E7" points="560.84,448.7369,569.6569,444.3481,564.0254,444.8829,563.4906,439.2514,560.84,448.7369" style="stroke:#E7E7E7;stroke-width:1;"/><text fill="#FFFFFF" font-family="sans-serif" font-size="13" lengthAdjust="spacing" textLength="35.3628" x="616.31" y="390.7438">takes</text><text fill="#FFFFFF" font-family="sans-serif" font-size="13" lengthAdjust="spacing" textLength="8.271" x="630.03" y="367.8777">1</text><text fill="#FFFFFF" font-family="sans-serif" font-size="13" lengthAdjust="spacing" textLength="23.0356" x="541.7832" y="437.8924">0..*</text></g><!--link RS_Patient to RoadSafetyClaim--><g class="link" data-entity-1="RS_Patient" data-entity-2="RoadSafetyClaim" data-source-line="82" data-uid="lnk16" id="link_RS_Patient_RoadSafetyClaim"><path codeLine="82" d="M727.2,347.9569 C750,382.4869 775.3942,420.9597 795.8542,451.9497" fill="none" id="RS_Patient-to-RoadSafetyClaim" style="stroke:#E7E7E7;stroke-width:1;"/><polygon fill="#E7E7E7" points="799.16,456.9569,797.5394,447.2423,796.4052,452.7842,790.8632,451.65,799.16,456.9569" style="stroke:#E7E7E7;stroke-width:1;"/><text fill="#FFFFFF" font-family="sans-serif" font-size="13" lengthAdjust="spacing" textLength="85.4014" x="758.31" y="390.7438">related claim</text><text fill="#FFFFFF" font-family="sans-serif" font-size="13" lengthAdjust="spacing" textLength="8.271" x="723.2241" y="367.8777">1</text><text fill="#FFFFFF" font-family="sans-serif" font-size="13" lengthAdjust="spacing" textLength="23.0356" x="769.9269" y="446.0671">0..*</text></g><!--link RoadSafetyEncounter to RS_Patient--><g class="link" data-entity-1="RoadSafetyEncounter" data-entity-2="RS_Patient" data-source-line="83" data-uid="lnk17" id="link_RoadSafetyEncounter_RS_Patient"><path codeLine="83" d="M690.31,157.8469 C690.31,181.8969 690.31,203.9569 690.31,228.0169" fill="none" id="RoadSafetyEncounter-to-RS_Patient" style="stroke:#E7E7E7;stroke-width:1;"/><polygon fill="#E7E7E7" points="690.31,234.0169,694.31,225.0169,690.31,229.0169,686.31,225.0169,690.31,234.0169" style="stroke:#E7E7E7;stroke-width:1;"/><text fill="#FFFFFF" font-family="sans-serif" font-size="13" lengthAdjust="spacing" textLength="47.1187" x="691.31" y="200.5538">subject</text><text fill="#FFFFFF" font-family="sans-serif" font-size="13" lengthAdjust="spacing" textLength="8.271" x="681.8628" y="177.3742">1</text><text fill="#FFFFFF" font-family="sans-serif" font-size="13" lengthAdjust="spacing" textLength="8.271" x="681.8382" y="223.2232">1</text></g><!--link RoadSafetyEncounter to RoadSafetyProcedure--><g class="link" data-entity-1="RoadSafetyEncounter" data-entity-2="RoadSafetyProcedure" data-source-line="84" data-uid="lnk18" id="link_RoadSafetyEncounter_RoadSafetyProcedure"><path codeLine="84" d="M607.5,157.6869 C574.92,180.5569 537.65,207.8569 505.31,234.4869 C424.16,301.3169 341.1715,381.6131 286.5015,436.3131" fill="none" id="RoadSafetyEncounter-to-RoadSafetyProcedure" style="stroke:#E7E7E7;stroke-width:1;"/><polygon fill="#E7E7E7" points="282.26,440.5569,291.4514,437.0188,285.7946,437.0204,285.793,431.3635,282.26,440.5569" style="stroke:#E7E7E7;stroke-width:1;"/><text fill="#FFFFFF" font-family="sans-serif" font-size="13" lengthAdjust="spacing" textLength="73.3027" x="506.31" y="295.6438">procedures</text><text fill="#FFFFFF" font-family="sans-serif" font-size="13" lengthAdjust="spacing" textLength="8.271" x="588.9361" y="177.598">1</text><text fill="#FFFFFF" font-family="sans-serif" font-size="13" lengthAdjust="spacing" textLength="23.0356" x="264.5567" y="429.7692">0..*</text></g><!--link RoadSafetyEncounter to InjuryObservation--><g class="link" data-entity-1="RoadSafetyEncounter" data-entity-2="InjuryObservation" data-source-line="85" data-uid="lnk19" id="link_RoadSafetyEncounter_InjuryObservation"><path codeLine="85" d="M756.42,157.9569 C821.19,213.1769 922.4,300.2569 1008.31,377.6769 C1024.92,392.6369 1038.1411,404.7957 1054.8011,420.3257" fill="none" id="RoadSafetyEncounter-to-InjuryObservation" style="stroke:#E7E7E7;stroke-width:1;"/><polygon fill="#E7E7E7" points="1059.19,424.4169,1055.3342,415.3542,1055.5326,421.0076,1049.8792,421.206,1059.19,424.4169" style="stroke:#E7E7E7;stroke-width:1;"/><text fill="#FFFFFF" font-family="sans-serif" font-size="13" lengthAdjust="spacing" textLength="83.6558" x="971.31" y="295.6438">observations</text><text fill="#FFFFFF" font-family="sans-serif" font-size="13" lengthAdjust="spacing" textLength="8.271" x="755.6167" y="177.4969">1</text><text fill="#FFFFFF" font-family="sans-serif" font-size="13" lengthAdjust="spacing" textLength="23.0356" x="1027.5665" y="413.5513">0..*</text></g><!--link RoadSafetyEncounter to RoadSafetyDocumentReference--><g class="link" data-entity-1="RoadSafetyEncounter" data-entity-2="RoadSafetyDocumentReference" data-source-line="86" data-uid="lnk20" id="link_RoadSafetyEncounter_RoadSafetyDocumentReference"><path codeLine="86" d="M597.88,111.5169 C518.46,122.3469 402.36,144.4069 309.31,187.4869 C283.41,199.4769 262.4454,213.3095 240.4754,230.4995" fill="none" id="RoadSafetyEncounter-to-RoadSafetyDocumentReference" style="stroke:#E7E7E7;stroke-width:1;"/><polygon fill="#E7E7E7" points="235.75,234.1969,245.303,231.8012,239.6879,231.1158,240.3733,225.5006,235.75,234.1969" style="stroke:#E7E7E7;stroke-width:1;"/><text fill="#FFFFFF" font-family="sans-serif" font-size="13" lengthAdjust="spacing" textLength="72.3633" x="310.31" y="200.5538">documents</text><text fill="#FFFFFF" font-family="sans-serif" font-size="13" lengthAdjust="spacing" textLength="8.271" x="581.9053" y="108.8482">1</text><text fill="#FFFFFF" font-family="sans-serif" font-size="13" lengthAdjust="spacing" textLength="23.0356" x="218.9601" y="223.4251">0..*</text></g><!--link RoadSafetyEncounter to RoadSafetyServiceRequest--><g class="link" data-entity-1="RoadSafetyEncounter" data-entity-2="RoadSafetyServiceRequest" data-source-line="87" data-uid="lnk21" id="link_RoadSafetyEncounter_RoadSafetyServiceRequest"><path codeLine="87" d="M782.54,120.0969 C857.06,135.6069 964.31,159.7569 1056.31,187.4869 C1100.97,200.9569 1143.2415,215.7514 1186.3915,231.9214" fill="none" id="RoadSafetyEncounter-to-RoadSafetyServiceRequest" style="stroke:#E7E7E7;stroke-width:1;"/><polygon fill="#E7E7E7" points="1192.01,234.0269,1184.986,227.1231,1187.328,232.2723,1182.1787,234.6143,1192.01,234.0269" style="stroke:#E7E7E7;stroke-width:1;"/><text fill="#FFFFFF" font-family="sans-serif" font-size="13" lengthAdjust="spacing" textLength="97.4556" x="1102.31" y="200.5538">refusal records</text><text fill="#FFFFFF" font-family="sans-serif" font-size="13" lengthAdjust="spacing" textLength="8.271" x="790.52" y="118.1387">1</text><text fill="#FFFFFF" font-family="sans-serif" font-size="13" lengthAdjust="spacing" textLength="23.0356" x="1150.5109" y="223.2344">0..*</text></g><!--link HospitalAvailable to RoadSafetyServiceRequest--><g class="link" data-entity-1="HospitalAvailable" data-entity-2="RoadSafetyServiceRequest" data-source-line="88" data-uid="lnk22" id="link_HospitalAvailable_RoadSafetyServiceRequest"><path codeLine="88" d="M1332.31,157.8469 C1332.31,181.8969 1332.31,203.9569 1332.31,228.0169" fill="none" id="HospitalAvailable-to-RoadSafetyServiceRequest" style="stroke:#E7E7E7;stroke-width:1;"/><polygon fill="#E7E7E7" points="1332.31,234.0169,1336.31,225.0169,1332.31,229.0169,1328.31,225.0169,1332.31,234.0169" style="stroke:#E7E7E7;stroke-width:1;"/><text fill="#FFFFFF" font-family="sans-serif" font-size="13" lengthAdjust="spacing" textLength="101.5435" x="1333.31" y="200.5538">referral context</text><text fill="#FFFFFF" font-family="sans-serif" font-size="13" lengthAdjust="spacing" textLength="8.271" x="1323.8626" y="177.3742">1</text><text fill="#FFFFFF" font-family="sans-serif" font-size="13" lengthAdjust="spacing" textLength="23.0356" x="1307.91" y="223.2232">0..*</text></g><!--SRC=[bLJ1Rjim3BtxAuXS1XH8i5qDhC2G3ak05VMIxZGKWo8nZXfRz2WvQ3RitoVPYPt6RkQSB8dcqtlK8vrs6K8oWmK91KknHhU7-HSOm_Vxhp3DXBLmfqNA8eyYMMqNov-9S1gDWpyHm8rMVgdN6ZdiLfhTvauu31kX5AErOPaB8r9jqWTEXT6_FG2PwEyHSswUIzu_h2pohWhLqDO9LrRfqYEcnFjgJQf2j-Ng6QM3yUq9fn108waq3haAUM6rhi_7uneaByY4X8P4pvzz2bjIRnB8I9u9RB5zJNLUupfo8Xj4kC6PaIsqp_gq4peJA_zs5P8HEPwNgI4H7a8wlSC-EdSaozpJNk0QsVF0IvLdpFpEFbBWsScio-hvlhZ9S4Ljy1wLhYal_UsODmvhoUJDBrDlWg1_Ilxcmhtz73qN9KmILSbThVzpLe6y9ivhMSbiIem9X-86IlsglfLeGzG8tRtm-6ukj65bDQ-x3sNf6qDBNE2l07SA0n-1SKTRL4EjRykY87Q-6UTcJJys1qizjPfUDMatezZihPPQcAVXPNWKTdkk7bzGbY4bGTPKyJVaAfk-W_5u38lWDn-t6rtOS1AT39_HXv4_keNH-ydaPjGpGcBO20lKdjWBwNtkYA4q2Zab79RPP-0OdDWEpAz7GmnrcocGOH_rZQK6mdzFa6CuEFToqYN5nN5jXs3q5VrrmQ_XqPr5CQZ3sPLGP_qIQhekhSZyLn8h6tK7wLLOoEp13jFk7m00]--></g></svg>